<svg width="140" height="140" viewBox="0 0 140 140" fill="none" xmlns="http://www.w3.org/2000/svg">
<path fill-rule="evenodd" clip-rule="evenodd" d="M70 11.6667C53.8933 11.6667 39.302 18.2023 28.7521 28.7521C18.2022 39.302 11.6667 53.8933 11.6667 70C11.6667 86.1067 18.2022 100.698 28.7521 111.248C39.302 121.798 53.8933 128.333 70 128.333C86.1067 128.333 100.698 121.798 111.248 111.248C121.798 100.698 128.333 86.1067 128.333 70C128.333 53.8933 121.798 39.302 111.248 28.7521C100.698 18.2023 86.1067 11.6667 70 11.6667ZM70 40.8334C73.2217 40.8334 75.8333 43.445 75.8333 46.6667V67.5838L85.7914 77.5419C88.0695 79.82 88.0695 83.5134 85.7914 85.7915C83.5134 88.0695 79.8199 88.0695 77.5419 85.7915L65.8752 74.1248C64.7812 73.0308 64.1667 71.5471 64.1667 70V46.6667C64.1667 43.445 66.7783 40.8334 70 40.8334Z" fill="white"/>
</svg>
