<svg width="86" height="104" viewBox="0 0 86 104" fill="none" xmlns="http://www.w3.org/2000/svg">
<path fill-rule="evenodd" clip-rule="evenodd" d="M47.0622 0.615616C44.1893 -0.205206 41.144 -0.205205 38.2711 0.615617L11.6045 8.23466C4.73564 10.1972 0 16.4754 0 23.6191V52.2828C0 67.7845 7.48635 82.3318 20.1006 91.342L33.3669 100.818C38.93 104.792 46.4033 104.792 51.9665 100.818L65.2328 91.342C77.847 82.3318 85.3333 67.7845 85.3333 52.2828V23.619C85.3333 16.4754 80.5977 10.1972 73.7289 8.23466L47.0622 0.615616ZM62.3144 33.0154C64.4632 35.0299 64.5721 38.4051 62.5575 40.5539L42.5575 61.8873C40.6469 63.9253 37.4874 64.1436 35.3146 62.3878L23.3146 52.6908C21.0236 50.8395 20.6671 47.4815 22.5184 45.1905C24.3698 42.8995 27.7278 42.5431 30.0188 44.3944L38.1648 50.977L54.7758 33.2586C56.7904 31.1097 60.1655 31.0008 62.3144 33.0154Z" fill="white"/>
</svg>
