<svg width="119" height="119" viewBox="0 0 119 119" fill="none" xmlns="http://www.w3.org/2000/svg">
<path fill-rule="evenodd" clip-rule="evenodd" d="M29.75 0C13.3195 0 0 13.3195 0 29.75V89.25C0 105.68 13.3195 119 29.75 119H89.25C105.68 119 119 105.68 119 89.25V29.75C119 13.3195 105.68 0 89.25 0H29.75ZM35.7 41.65C35.7 38.3639 38.3639 35.7 41.65 35.7C44.9361 35.7 47.6 38.3639 47.6 41.65C47.6 44.9361 44.9361 47.6 41.65 47.6C38.3639 47.6 35.7 44.9361 35.7 41.65ZM41.65 23.8C31.7917 23.8 23.8 31.7917 23.8 41.65C23.8 51.5083 31.7917 59.5 41.65 59.5C51.5083 59.5 59.5 51.5083 59.5 41.65C59.5 31.7917 51.5083 23.8 41.65 23.8ZM74.4126 72.6967C76.4816 70.1104 80.2607 69.714 82.8203 71.8035L94.2533 81.8241C96.7245 83.99 100.484 83.7425 102.65 81.2713C104.816 78.8 104.568 75.0408 102.097 72.8749L90.543 62.7483L90.486 62.7009C82.8054 56.3003 71.3659 57.4557 65.1203 65.2628L55.6051 77.1568C53.742 79.4857 50.4075 80.0034 47.9259 78.349C40.3422 73.2932 30.1633 74.8459 24.4298 81.914L16.3203 91.3124C14.1735 93.8004 14.4501 97.5575 16.9381 99.7043C19.426 101.851 23.1832 101.574 25.3299 99.0865L33.5767 89.529L33.6458 89.4427C35.5089 87.1138 38.8435 86.5961 41.325 88.2504C48.9425 93.3287 59.1783 91.7395 64.8974 84.5906L74.4126 72.6967Z" fill="white"/>
</svg>
